<svg xmlns="http://www.w3.org/2000/svg" viewBox="0 0 511.986 511.986"><linearGradient id="a" gradientUnits="userSpaceOnUse" x1="-9.933" y1="636.3" x2="-9.933" y2="572.473" gradientTransform="matrix(8.5333 0 0 -8.5333 336.559 5433.287)"><stop offset="0" stop-color="#fc5c7d"/><stop offset=".129" stop-color="#f35e85"/><stop offset=".343" stop-color="#d9659b"/><stop offset=".616" stop-color="#b070bf"/><stop offset=".934" stop-color="#777ff0"/><stop offset="1" stop-color="#6a82fb"/></linearGradient><path d="M245.399 280.826l-4.267 16.538a42.999 42.999 0 0 0 21.333 0l-4.267-16.538a25.8 25.8 0 0 1-12.799 0z" fill="url(#a)"/><linearGradient id="b" gradientUnits="userSpaceOnUse" x1="-13.424" y1="636.3" x2="-13.424" y2="572.473" gradientTransform="matrix(8.5333 0 0 -8.5333 336.559 5433.287)"><stop offset="0" stop-color="#fc5c7d"/><stop offset=".129" stop-color="#f35e85"/><stop offset=".343" stop-color="#d9659b"/><stop offset=".616" stop-color="#b070bf"/><stop offset=".934" stop-color="#777ff0"/><stop offset="1" stop-color="#6a82fb"/></linearGradient><path d="M223.588 224.036c-17.673 15.582-19.371 42.547-3.789 60.22l.009.009 12.8-11.298c-9.353-10.607-8.337-26.778 2.27-36.13l-11.29-12.801z" fill="url(#b)"/><linearGradient id="c" gradientUnits="userSpaceOnUse" x1="-9.932" y1="636.3" x2="-9.932" y2="572.473" gradientTransform="matrix(8.5333 0 0 -8.5333 336.559 5433.287)"><stop offset="0" stop-color="#fc5c7d"/><stop offset=".129" stop-color="#f35e85"/><stop offset=".343" stop-color="#d9659b"/><stop offset=".616" stop-color="#b070bf"/><stop offset=".934" stop-color="#777ff0"/><stop offset="1" stop-color="#6a82fb"/></linearGradient><path d="M175.008 256.036c0 42.419 34.381 76.8 76.8 76.8s76.8-34.381 76.8-76.8-34.381-76.8-76.8-76.8c-42.394.051-76.749 34.407-76.8 76.8zm136.533 0c0 32.99-26.743 59.733-59.733 59.733s-59.733-26.743-59.733-59.733 26.743-59.733 59.733-59.733c32.973.043 59.691 26.76 59.733 59.733z" fill="url(#c)"/><linearGradient id="d" gradientUnits="userSpaceOnUse" x1="-9.441" y1="636.3" x2="-9.441" y2="572.473" gradientTransform="matrix(8.5333 0 0 -8.5333 336.559 5433.287)"><stop offset="0" stop-color="#fc5c7d"/><stop offset=".129" stop-color="#f35e85"/><stop offset=".343" stop-color="#d9659b"/><stop offset=".616" stop-color="#b070bf"/><stop offset=".934" stop-color="#777ff0"/><stop offset="1" stop-color="#6a82fb"/></linearGradient><path d="M456.608 76.836a50.877 50.877 0 0 0-24.593 6.315 110.598 110.598 0 0 0-77.807-14.788c-23.501-56.55-88.388-83.345-144.939-59.844a110.91 110.91 0 0 0-59.93 60.041 111.199 111.199 0 0 0-52.787 3.354C79.733 49.224 47.699 44.471 25.009 61.29s-27.452 48.845-10.633 71.535a50.956 50.956 0 0 0 10.069 10.206c-12.988 39.765-2.526 83.447 27.076 113.007C14.59 292.951 8.343 350.603 36.52 394.566c.734 1.152 1.579 2.185 2.347 3.294-16.068 23.27-10.223 55.159 13.047 71.219 23.27 16.068 55.159 10.223 71.219-13.047a51.551 51.551 0 0 0 5.598-10.564c.427 0 .853.043 1.28.043 6.502-.026 12.988-.64 19.388-1.818 23.561 56.55 88.516 83.294 145.067 59.733a110.95 110.95 0 0 0 59.733-59.733 108.571 108.571 0 0 0 19.379 1.801 112.122 112.122 0 0 0 23.731-2.56c59.87-13.005 97.86-72.081 84.855-131.951a111 111 0 0 0-29.995-54.929 110.154 110.154 0 0 0 32.324-85.18c23.663-15.479 30.293-47.215 14.814-70.878a51.176 51.176 0 0 0-42.699-23.16zm-435.2 25.6c0-18.85 15.283-34.133 34.133-34.133s34.133 15.283 34.133 34.133-15.283 34.134-34.133 34.134-34.133-15.284-34.133-34.134zm18.329 48.64c26.897 8.721 55.774-6.007 64.495-32.913a51.242 51.242 0 0 0 .213-30.916 94.201 94.201 0 0 1 39.637-2.321 110.75 110.75 0 0 0-3.209 26.044v84.54l-71.091 45.739c-1.809 1.169-3.465 2.475-5.18 3.721-25.069-24.253-34.644-60.409-24.865-93.894zm101.137 64.717v80.486l-61.858-39.808c-.205-.137-.401-.29-.606-.435.205-.137.393-.299.606-.435l61.858-39.808zM81.141 460.836c-18.85 0-34.133-15.283-34.133-34.133s15.283-34.133 34.133-34.133 34.133 15.283 34.133 34.133-15.283 34.133-34.133 34.133zm51.115-32.486c0-.555.085-1.092.085-1.647.051-28.228-22.784-51.149-51.012-51.2a51.15 51.15 0 0 0-30.37 9.933l-.077-.102c-24.149-37.641-18.441-87.083 13.653-118.229 1.707 1.263 3.413 2.56 5.248 3.721l71.091 45.739v84.54a110.28 110.28 0 0 0 3.26 26.206 92.703 92.703 0 0 1-11.878 1.039zM251.808 17.103c37.018.051 70.554 21.845 85.649 55.646a111.025 111.025 0 0 0-23.68 11.503l-61.969 39.868-61.969-39.868a110.025 110.025 0 0 0-23.689-11.486c15.087-33.809 48.632-55.603 85.658-55.663zm-93.867 93.867a93.373 93.373 0 0 1 2.722-22.059 93.23 93.23 0 0 1 19.942 9.685l55.467 35.669-78.131 50.261V110.97zm0 290.133v-73.557l78.097 50.261-55.467 35.669a94.774 94.774 0 0 1-19.925 9.737 93.312 93.312 0 0 1-2.705-22.11zm93.867 93.867c-37.018-.06-70.554-21.837-85.649-55.637a111.718 111.718 0 0 0 23.68-11.511l61.969-39.868 61.969 39.868a111.64 111.64 0 0 0 23.68 11.503c-15.096 33.808-48.632 55.593-85.649 55.645zm93.866-93.867a93.349 93.349 0 0 1-2.714 22.007 94.13 94.13 0 0 1-19.951-9.634l-55.467-35.669 78.131-50.261v73.557zm0-93.867l-93.867 60.425-93.867-60.425v-102.4l93.867-60.399 93.867 60.399v102.4zm0-122.709l-78.097-50.261 55.467-35.669a94.45 94.45 0 0 1 19.934-9.702 93.489 93.489 0 0 1 2.697 22.076v73.556zm107.06 200.806c-20.045 31.198-56.593 47.633-93.235 41.933a110.836 110.836 0 0 0 3.243-26.163v-84.54l71.091-45.739c1.818-1.169 3.567-2.415 5.299-3.678 32.051 31.156 37.734 80.572 13.602 118.187zm-89.993-89.054v-80.486l61.858 39.808c.205.128.384.29.597.427-.213.137-.393.307-.597.444l-61.858 39.807zm76.169-51.336c-1.707-1.229-3.311-2.509-5.077-3.652l-71.091-45.781v-84.54a110.602 110.602 0 0 0-3.251-26.197 93.52 93.52 0 0 1 58.359 9.907c-18.466 21.359-16.119 53.641 5.239 72.107a51.115 51.115 0 0 0 44.467 11.247 92.884 92.884 0 0 1-28.646 66.909zm17.698-82.773c-18.85 0-34.133-15.283-34.133-34.133s15.283-34.133 34.133-34.133 34.133 15.283 34.133 34.133-15.283 34.133-34.133 34.133z" fill="url(#d)"/><linearGradient id="e" gradientUnits="userSpaceOnUse" x1="15.066" y1="636.3" x2="15.066" y2="572.473" gradientTransform="matrix(8.5333 0 0 -8.5333 336.559 5433.287)"><stop offset="0" stop-color="#fc5c7d"/><stop offset=".129" stop-color="#f35e85"/><stop offset=".343" stop-color="#d9659b"/><stop offset=".616" stop-color="#b070bf"/><stop offset=".934" stop-color="#777ff0"/><stop offset="1" stop-color="#6a82fb"/></linearGradient><path fill="url(#e)" d="M456.591 128.002h17.067v17.067h-17.067z"/><linearGradient id="f" gradientUnits="userSpaceOnUse" x1="-32.934" y1="636.3" x2="-32.934" y2="572.473" gradientTransform="matrix(8.5333 0 0 -8.5333 336.559 5433.287)"><stop offset="0" stop-color="#fc5c7d"/><stop offset=".129" stop-color="#f35e85"/><stop offset=".343" stop-color="#d9659b"/><stop offset=".616" stop-color="#b070bf"/><stop offset=".934" stop-color="#777ff0"/><stop offset="1" stop-color="#6a82fb"/></linearGradient><path fill="url(#f)" d="M46.991 85.335h17.067v17.067H46.991z"/><linearGradient id="g" gradientUnits="userSpaceOnUse" x1="-30.934" y1="636.3" x2="-30.934" y2="572.473" gradientTransform="matrix(8.5333 0 0 -8.5333 336.559 5433.287)"><stop offset="0" stop-color="#fc5c7d"/><stop offset=".129" stop-color="#f35e85"/><stop offset=".343" stop-color="#d9659b"/><stop offset=".616" stop-color="#b070bf"/><stop offset=".934" stop-color="#777ff0"/><stop offset="1" stop-color="#6a82fb"/></linearGradient><path fill="url(#g)" d="M64.057 426.669h17.067v17.067H64.057z"/></svg>